G04 #@! TF.GenerationSoftware,KiCad,Pcbnew,8.0.8*
G04 #@! TF.CreationDate,2025-10-01T21:52:52+01:00*
G04 #@! TF.ProjectId,3S_coinHolder_LIR1654.kicad_pro,33535f63-6f69-46e4-986f-6c6465725f4c,rev?*
G04 #@! TF.SameCoordinates,Original*
G04 #@! TF.FileFunction,Copper,L1,Top*
G04 #@! TF.FilePolarity,Positive*
%FSLAX46Y46*%
G04 Gerber Fmt 4.6, Leading zero omitted, Abs format (unit mm)*
G04 Created by KiCad (PCBNEW 8.0.8) date 2025-10-01 21:52:52*
%MOMM*%
%LPD*%
G01*
G04 APERTURE LIST*
G04 #@! TA.AperFunction,ComponentPad*
%ADD10R,1.700000X1.700000*%
G04 #@! TD*
G04 #@! TA.AperFunction,ComponentPad*
%ADD11O,1.700000X1.700000*%
G04 #@! TD*
G04 #@! TA.AperFunction,ViaPad*
%ADD12C,0.600000*%
G04 #@! TD*
G04 #@! TA.AperFunction,Conductor*
%ADD13C,0.200000*%
G04 #@! TD*
G04 APERTURE END LIST*
D10*
G04 #@! TO.P,J3,1,Pin_1*
G04 #@! TO.N,Net-(J2-Pin_1)*
X123000000Y-103540000D03*
D11*
G04 #@! TO.P,J3,2,Pin_2*
G04 #@! TO.N,Net-(J2-Pin_2)*
X123000000Y-101000000D03*
G04 #@! TO.P,J3,3,Pin_3*
G04 #@! TO.N,Net-(J2-Pin_3)*
X123000000Y-98460000D03*
G04 #@! TO.P,J3,4,Pin_4*
G04 #@! TO.N,Net-(J2-Pin_4)*
X123000000Y-95920000D03*
G04 #@! TD*
D10*
G04 #@! TO.P,J2,1,Pin_1*
G04 #@! TO.N,Net-(J2-Pin_1)*
X126851214Y-103550000D03*
D11*
G04 #@! TO.P,J2,2,Pin_2*
G04 #@! TO.N,Net-(J2-Pin_2)*
X126851214Y-101010000D03*
G04 #@! TO.P,J2,3,Pin_3*
G04 #@! TO.N,Net-(J2-Pin_3)*
X126851214Y-98470000D03*
G04 #@! TO.P,J2,4,Pin_4*
G04 #@! TO.N,Net-(J2-Pin_4)*
X126851214Y-95930000D03*
G04 #@! TD*
D10*
G04 #@! TO.P,J1,1,Pin_1*
G04 #@! TO.N,/V_{C1}*
X185164214Y-95950000D03*
D11*
G04 #@! TO.P,J1,2,Pin_2*
G04 #@! TO.N,/V_{C2}*
X185164214Y-98490000D03*
G04 #@! TO.P,J1,3,Pin_3*
G04 #@! TO.N,/V_{C3}*
X185164214Y-101030000D03*
G04 #@! TO.P,J1,4,Pin_4*
G04 #@! TO.N,GND*
X185164214Y-103570000D03*
G04 #@! TD*
D12*
G04 #@! TO.N,/V_{C3}*
X156005679Y-99456411D03*
G04 #@! TO.N,GND*
X138255679Y-99456411D03*
G04 #@! TO.N,/V_{C2}*
X173731045Y-99481045D03*
G04 #@! TD*
D13*
G04 #@! TO.N,/V_{C3}*
X182694214Y-103500000D02*
X185164214Y-101030000D01*
X160049268Y-103500000D02*
X182694214Y-103500000D01*
X156005679Y-99456411D02*
X160049268Y-103500000D01*
G04 #@! TO.N,/V_{C2}*
X174722090Y-98490000D02*
X173731045Y-99481045D01*
X185164214Y-98490000D02*
X174722090Y-98490000D01*
G04 #@! TO.N,Net-(J2-Pin_1)*
X127519714Y-104218500D02*
X126851214Y-103550000D01*
X123000000Y-103540000D02*
X126841214Y-103540000D01*
X126841214Y-103540000D02*
X126851214Y-103550000D01*
G04 #@! TO.N,Net-(J2-Pin_3)*
X126841214Y-98460000D02*
X126851214Y-98470000D01*
X123000000Y-98460000D02*
X126841214Y-98460000D01*
G04 #@! TO.N,Net-(J2-Pin_4)*
X123010000Y-95930000D02*
X123000000Y-95920000D01*
X126851214Y-95930000D02*
X123010000Y-95930000D01*
G04 #@! TO.N,Net-(J2-Pin_2)*
X123010000Y-101010000D02*
X123000000Y-101000000D01*
X126851214Y-101010000D02*
X123010000Y-101010000D01*
G04 #@! TD*
G04 #@! TA.AperFunction,Conductor*
G04 #@! TO.N,GND*
G36*
X185254418Y-91250816D02*
G01*
X185454561Y-91265130D01*
X185472063Y-91267647D01*
X185663797Y-91309355D01*
X185680755Y-91314334D01*
X185856354Y-91379830D01*
X185864609Y-91382909D01*
X185880701Y-91390259D01*
X186052904Y-91484288D01*
X186067784Y-91493849D01*
X186209414Y-91599873D01*
X186224867Y-91611441D01*
X186238237Y-91623027D01*
X186376972Y-91761762D01*
X186388558Y-91775132D01*
X186495981Y-91918632D01*
X186506146Y-91932210D01*
X186515711Y-91947095D01*
X186609740Y-92119298D01*
X186617090Y-92135390D01*
X186685662Y-92319236D01*
X186690646Y-92336212D01*
X186732351Y-92527931D01*
X186734869Y-92545442D01*
X186749184Y-92745580D01*
X186749500Y-92754427D01*
X186749500Y-103360322D01*
X186729815Y-103427361D01*
X186677011Y-103473116D01*
X186607853Y-103483060D01*
X186544297Y-103454035D01*
X186506523Y-103395257D01*
X186501972Y-103371130D01*
X186498783Y-103334683D01*
X186498781Y-103334673D01*
X186437647Y-103106516D01*
X186437643Y-103106507D01*
X186337814Y-102892422D01*
X186337813Y-102892420D01*
X186202327Y-102698926D01*
X186202322Y-102698920D01*
X186035296Y-102531894D01*
X185841792Y-102396399D01*
X185627706Y-102296570D01*
X185627700Y-102296567D01*
X185505563Y-102263841D01*
X185445903Y-102227476D01*
X185415374Y-102164629D01*
X185423669Y-102095253D01*
X185468154Y-102041375D01*
X185501658Y-102025407D01*
X185568168Y-102005232D01*
X185750664Y-101907685D01*
X185910624Y-101776410D01*
X186041899Y-101616450D01*
X186139446Y-101433954D01*
X186199514Y-101235934D01*
X186219797Y-101030000D01*
X186199514Y-100824066D01*
X186139446Y-100626046D01*
X186041899Y-100443550D01*
X185989916Y-100380209D01*
X185910624Y-100283589D01*
X185750666Y-100152317D01*
X185750667Y-100152317D01*
X185750664Y-100152315D01*
X185568168Y-100054768D01*
X185370148Y-99994700D01*
X185370146Y-99994699D01*
X185370148Y-99994699D01*
X185164214Y-99974417D01*
X184958281Y-99994699D01*
X184760257Y-100054769D01*
X184650112Y-100113643D01*
X184577764Y-100152315D01*
X184577762Y-100152316D01*
X184577761Y-100152317D01*
X184417803Y-100283589D01*
X184286531Y-100443547D01*
X184188983Y-100626043D01*
X184128913Y-100824067D01*
X184108631Y-101030000D01*
X184128913Y-101235932D01*
X184128914Y-101235934D01*
X184179882Y-101403956D01*
X184188983Y-101433956D01*
X184196593Y-101448193D01*
X184210834Y-101516596D01*
X184185833Y-101581840D01*
X184174915Y-101594326D01*
X182606062Y-103163181D01*
X182544739Y-103196666D01*
X182518381Y-103199500D01*
X160225101Y-103199500D01*
X160158062Y-103179815D01*
X160137420Y-103163181D01*
X156545074Y-99570835D01*
X156511589Y-99509512D01*
X156510573Y-99481045D01*
X173225398Y-99481045D01*
X173245879Y-99623501D01*
X173294417Y-99729782D01*
X173305668Y-99754418D01*
X173399917Y-99863188D01*
X173520992Y-99940998D01*
X173520995Y-99940999D01*
X173520994Y-99940999D01*
X173659081Y-99981544D01*
X173659083Y-99981545D01*
X173659084Y-99981545D01*
X173803007Y-99981545D01*
X173803007Y-99981544D01*
X173941098Y-99940998D01*
X174062173Y-99863188D01*
X174156422Y-99754418D01*
X174216210Y-99623502D01*
X174236692Y-99481045D01*
X174235384Y-99471950D01*
X174245324Y-99402794D01*
X174270437Y-99366622D01*
X174810242Y-98826819D01*
X174871565Y-98793334D01*
X174897923Y-98790500D01*
X184065635Y-98790500D01*
X184132674Y-98810185D01*
X184178429Y-98862989D01*
X184184295Y-98878503D01*
X184188982Y-98893954D01*
X184286529Y-99076450D01*
X184286531Y-99076452D01*
X184417803Y-99236410D01*
X184512292Y-99313954D01*
X184577764Y-99367685D01*
X184760260Y-99465232D01*
X184958280Y-99525300D01*
X184958279Y-99525300D01*
X184974982Y-99526945D01*
X185164214Y-99545583D01*
X185370148Y-99525300D01*
X185568168Y-99465232D01*
X185750664Y-99367685D01*
X185910624Y-99236410D01*
X186041899Y-99076450D01*
X186139446Y-98893954D01*
X186199514Y-98695934D01*
X186219797Y-98490000D01*
X186199514Y-98284066D01*
X186139446Y-98086046D01*
X186041899Y-97903550D01*
X185989916Y-97840209D01*
X185910624Y-97743589D01*
X185750666Y-97612317D01*
X185750667Y-97612317D01*
X185750664Y-97612315D01*
X185568168Y-97514768D01*
X185370148Y-97454700D01*
X185370146Y-97454699D01*
X185370148Y-97454699D01*
X185164214Y-97434417D01*
X184958281Y-97454699D01*
X184760257Y-97514769D01*
X184650112Y-97573643D01*
X184577764Y-97612315D01*
X184577762Y-97612316D01*
X184577761Y-97612317D01*
X184417803Y-97743589D01*
X184286531Y-97903547D01*
X184188983Y-98086043D01*
X184188982Y-98086046D01*
X184184295Y-98101497D01*
X184145997Y-98159935D01*
X184082184Y-98188391D01*
X184065635Y-98189500D01*
X174682528Y-98189500D01*
X174644314Y-98199739D01*
X174606099Y-98209979D01*
X174606098Y-98209980D01*
X174552220Y-98241087D01*
X174537582Y-98249538D01*
X174537576Y-98249542D01*
X173842892Y-98944226D01*
X173781569Y-98977711D01*
X173755211Y-98980545D01*
X173659081Y-98980545D01*
X173520994Y-99021090D01*
X173399918Y-99098901D01*
X173305668Y-99207671D01*
X173305667Y-99207673D01*
X173245879Y-99338588D01*
X173225398Y-99481045D01*
X156510573Y-99481045D01*
X156510018Y-99465505D01*
X156511326Y-99456411D01*
X156490844Y-99313954D01*
X156431056Y-99183038D01*
X156336807Y-99074268D01*
X156215732Y-98996458D01*
X156215730Y-98996457D01*
X156215728Y-98996456D01*
X156215729Y-98996456D01*
X156077642Y-98955911D01*
X156077640Y-98955911D01*
X155933718Y-98955911D01*
X155933715Y-98955911D01*
X155795628Y-98996456D01*
X155674552Y-99074267D01*
X155580302Y-99183037D01*
X155580301Y-99183039D01*
X155520513Y-99313954D01*
X155500032Y-99456411D01*
X155520513Y-99598867D01*
X155531764Y-99623502D01*
X155580302Y-99729784D01*
X155674551Y-99838554D01*
X155795626Y-99916364D01*
X155795629Y-99916365D01*
X155795628Y-99916365D01*
X155879526Y-99940999D01*
X155930959Y-99956101D01*
X155933715Y-99956910D01*
X155933717Y-99956911D01*
X156029846Y-99956911D01*
X156096885Y-99976596D01*
X156117527Y-99993230D01*
X159808808Y-103684511D01*
X159864757Y-103740460D01*
X159864759Y-103740461D01*
X159864763Y-103740464D01*
X159932683Y-103779677D01*
X159933279Y-103780021D01*
X160009706Y-103800500D01*
X160009708Y-103800500D01*
X182733774Y-103800500D01*
X182733776Y-103800500D01*
X182810203Y-103780021D01*
X182878725Y-103740460D01*
X182934674Y-103684511D01*
X183723887Y-102895297D01*
X183785209Y-102861813D01*
X183854900Y-102866797D01*
X183910834Y-102908669D01*
X183935251Y-102974133D01*
X183923949Y-103035383D01*
X183890785Y-103106502D01*
X183890781Y-103106513D01*
X183833578Y-103319999D01*
X183833578Y-103320000D01*
X184731202Y-103320000D01*
X184698289Y-103377007D01*
X184664214Y-103504174D01*
X184664214Y-103635826D01*
X184698289Y-103762993D01*
X184731202Y-103820000D01*
X183833578Y-103820000D01*
X183890781Y-104033486D01*
X183890784Y-104033492D01*
X183990613Y-104247578D01*
X184126108Y-104441082D01*
X184293131Y-104608105D01*
X184486635Y-104743600D01*
X184700721Y-104843429D01*
X184700730Y-104843433D01*
X184914214Y-104900634D01*
X184914214Y-104003012D01*
X184971221Y-104035925D01*
X185098388Y-104070000D01*
X185230040Y-104070000D01*
X185357207Y-104035925D01*
X185414214Y-104003012D01*
X185414214Y-104900633D01*
X185627697Y-104843433D01*
X185627706Y-104843429D01*
X185841792Y-104743600D01*
X186035296Y-104608105D01*
X186202319Y-104441082D01*
X186337814Y-104247578D01*
X186437643Y-104033492D01*
X186437647Y-104033483D01*
X186498781Y-103805326D01*
X186498783Y-103805315D01*
X186501972Y-103768870D01*
X186527424Y-103703801D01*
X186584015Y-103662822D01*
X186653777Y-103658944D01*
X186714561Y-103693398D01*
X186747069Y-103755245D01*
X186749500Y-103779677D01*
X186749500Y-106745572D01*
X186749184Y-106754419D01*
X186734869Y-106954557D01*
X186732351Y-106972068D01*
X186690646Y-107163787D01*
X186685662Y-107180763D01*
X186617090Y-107364609D01*
X186609740Y-107380701D01*
X186515711Y-107552904D01*
X186506146Y-107567789D01*
X186388558Y-107724867D01*
X186376972Y-107738237D01*
X186238237Y-107876972D01*
X186224867Y-107888558D01*
X186067789Y-108006146D01*
X186052904Y-108015711D01*
X185880701Y-108109740D01*
X185864609Y-108117090D01*
X185680763Y-108185662D01*
X185663787Y-108190646D01*
X185472068Y-108232351D01*
X185454557Y-108234869D01*
X185273779Y-108247799D01*
X185254417Y-108249184D01*
X185245572Y-108249500D01*
X112987711Y-108249500D01*
X112987695Y-108249499D01*
X112919618Y-108249499D01*
X112908812Y-108249027D01*
X112751456Y-108235262D01*
X112730169Y-108231509D01*
X112582836Y-108192032D01*
X112562526Y-108184640D01*
X112424287Y-108120180D01*
X112405567Y-108109372D01*
X112280627Y-108021889D01*
X112264069Y-108007996D01*
X112156209Y-107900137D01*
X112142321Y-107883586D01*
X112054829Y-107758636D01*
X112044025Y-107739922D01*
X112025313Y-107699794D01*
X111979560Y-107601678D01*
X111972170Y-107581373D01*
X111968530Y-107567789D01*
X111932691Y-107434037D01*
X111928939Y-107412752D01*
X111915186Y-107255553D01*
X111914714Y-107244746D01*
X111914714Y-102670247D01*
X121949500Y-102670247D01*
X121949500Y-104409752D01*
X121961131Y-104468229D01*
X121961132Y-104468230D01*
X122005447Y-104534552D01*
X122071769Y-104578867D01*
X122071770Y-104578868D01*
X122130247Y-104590499D01*
X122130250Y-104590500D01*
X122130252Y-104590500D01*
X123869750Y-104590500D01*
X123869751Y-104590499D01*
X123884568Y-104587552D01*
X123928229Y-104578868D01*
X123928229Y-104578867D01*
X123928231Y-104578867D01*
X123994552Y-104534552D01*
X124038867Y-104468231D01*
X124038867Y-104468229D01*
X124038868Y-104468229D01*
X124050499Y-104409752D01*
X124050500Y-104409750D01*
X124050500Y-103964500D01*
X124070185Y-103897461D01*
X124122989Y-103851706D01*
X124174500Y-103840500D01*
X125676714Y-103840500D01*
X125743753Y-103860185D01*
X125789508Y-103912989D01*
X125800714Y-103964500D01*
X125800714Y-104419752D01*
X125812345Y-104478229D01*
X125812346Y-104478230D01*
X125856661Y-104544552D01*
X125922983Y-104588867D01*
X125922984Y-104588868D01*
X125981461Y-104600499D01*
X125981464Y-104600500D01*
X125981466Y-104600500D01*
X127720964Y-104600500D01*
X127720965Y-104600499D01*
X127735782Y-104597552D01*
X127779443Y-104588868D01*
X127779443Y-104588867D01*
X127779445Y-104588867D01*
X127845766Y-104544552D01*
X127890081Y-104478231D01*
X127890081Y-104478229D01*
X127890082Y-104478229D01*
X127901713Y-104419752D01*
X127901714Y-104419750D01*
X127901714Y-102680249D01*
X127901713Y-102680247D01*
X127890082Y-102621770D01*
X127890081Y-102621769D01*
X127845766Y-102555447D01*
X127779444Y-102511132D01*
X127779443Y-102511131D01*
X127720966Y-102499500D01*
X127720962Y-102499500D01*
X125981466Y-102499500D01*
X125981461Y-102499500D01*
X125922984Y-102511131D01*
X125922983Y-102511132D01*
X125856661Y-102555447D01*
X125812346Y-102621769D01*
X125812345Y-102621770D01*
X125800714Y-102680247D01*
X125800714Y-103115500D01*
X125781029Y-103182539D01*
X125728225Y-103228294D01*
X125676714Y-103239500D01*
X124174500Y-103239500D01*
X124107461Y-103219815D01*
X124061706Y-103167011D01*
X124050500Y-103115500D01*
X124050500Y-102670249D01*
X124050499Y-102670247D01*
X124038868Y-102611770D01*
X124038867Y-102611769D01*
X123994552Y-102545447D01*
X123928230Y-102501132D01*
X123928229Y-102501131D01*
X123869752Y-102489500D01*
X123869748Y-102489500D01*
X122130252Y-102489500D01*
X122130247Y-102489500D01*
X122071770Y-102501131D01*
X122071769Y-102501132D01*
X122005447Y-102545447D01*
X121961132Y-102611769D01*
X121961131Y-102611770D01*
X121949500Y-102670247D01*
X111914714Y-102670247D01*
X111914714Y-101000000D01*
X121944417Y-101000000D01*
X121964699Y-101205932D01*
X121973800Y-101235934D01*
X122024768Y-101403954D01*
X122122315Y-101586450D01*
X122146935Y-101616450D01*
X122253589Y-101746410D01*
X122290145Y-101776410D01*
X122413550Y-101877685D01*
X122596046Y-101975232D01*
X122794066Y-102035300D01*
X122794065Y-102035300D01*
X122812529Y-102037118D01*
X123000000Y-102055583D01*
X123205934Y-102035300D01*
X123403954Y-101975232D01*
X123586450Y-101877685D01*
X123746410Y-101746410D01*
X123877685Y-101586450D01*
X123975232Y-101403954D01*
X123976887Y-101398499D01*
X124015187Y-101340062D01*
X124079001Y-101311609D01*
X124095546Y-101310500D01*
X125752635Y-101310500D01*
X125819674Y-101330185D01*
X125865429Y-101382989D01*
X125871295Y-101398503D01*
X125875982Y-101413954D01*
X125973529Y-101596450D01*
X125989944Y-101616452D01*
X126104803Y-101756410D01*
X126201423Y-101835702D01*
X126264764Y-101887685D01*
X126447260Y-101985232D01*
X126645280Y-102045300D01*
X126645279Y-102045300D01*
X126663743Y-102047118D01*
X126851214Y-102065583D01*
X127057148Y-102045300D01*
X127255168Y-101985232D01*
X127437664Y-101887685D01*
X127597624Y-101756410D01*
X127728899Y-101596450D01*
X127826446Y-101413954D01*
X127886514Y-101215934D01*
X127906797Y-101010000D01*
X127886514Y-100804066D01*
X127826446Y-100606046D01*
X127728899Y-100423550D01*
X127676916Y-100360209D01*
X127597624Y-100263589D01*
X127479891Y-100166969D01*
X127437664Y-100132315D01*
X127255168Y-100034768D01*
X127057148Y-99974700D01*
X127057146Y-99974699D01*
X127057148Y-99974699D01*
X126851214Y-99954417D01*
X126645281Y-99974699D01*
X126447257Y-100034769D01*
X126337112Y-100093643D01*
X126264764Y-100132315D01*
X126264762Y-100132316D01*
X126264761Y-100132317D01*
X126104803Y-100263589D01*
X125973531Y-100423547D01*
X125973529Y-100423550D01*
X125962839Y-100443550D01*
X125875983Y-100606043D01*
X125875982Y-100606046D01*
X125871295Y-100621497D01*
X125832997Y-100679935D01*
X125769184Y-100708391D01*
X125752635Y-100709500D01*
X124101612Y-100709500D01*
X124034573Y-100689815D01*
X123988818Y-100637011D01*
X123982952Y-100621497D01*
X123975232Y-100596046D01*
X123877685Y-100413550D01*
X123825702Y-100350209D01*
X123746410Y-100253589D01*
X123623005Y-100152315D01*
X123586450Y-100122315D01*
X123403954Y-100024768D01*
X123205934Y-99964700D01*
X123205932Y-99964699D01*
X123205934Y-99964699D01*
X123000000Y-99944417D01*
X122794067Y-99964699D01*
X122596043Y-100024769D01*
X122485898Y-100083643D01*
X122413550Y-100122315D01*
X122413548Y-100122316D01*
X122413547Y-100122317D01*
X122253589Y-100253589D01*
X122122317Y-100413547D01*
X122122315Y-100413550D01*
X122116970Y-100423550D01*
X122024769Y-100596043D01*
X122024768Y-100596045D01*
X122024768Y-100596046D01*
X122021735Y-100606046D01*
X121964699Y-100794067D01*
X121944417Y-101000000D01*
X111914714Y-101000000D01*
X111914714Y-98460000D01*
X121944417Y-98460000D01*
X121964699Y-98665932D01*
X121973800Y-98695934D01*
X122024768Y-98863954D01*
X122122315Y-99046450D01*
X122145144Y-99074267D01*
X122253589Y-99206410D01*
X122290145Y-99236410D01*
X122413550Y-99337685D01*
X122596046Y-99435232D01*
X122794066Y-99495300D01*
X122794065Y-99495300D01*
X122812529Y-99497118D01*
X123000000Y-99515583D01*
X123205934Y-99495300D01*
X123403954Y-99435232D01*
X123586450Y-99337685D01*
X123746410Y-99206410D01*
X123877685Y-99046450D01*
X123975232Y-98863954D01*
X123979919Y-98848503D01*
X124018217Y-98790065D01*
X124082030Y-98761609D01*
X124098579Y-98760500D01*
X125749602Y-98760500D01*
X125816641Y-98780185D01*
X125862396Y-98832989D01*
X125868259Y-98848496D01*
X125875982Y-98873954D01*
X125875983Y-98873957D01*
X125886672Y-98893954D01*
X125973529Y-99056450D01*
X125989944Y-99076452D01*
X126104803Y-99216410D01*
X126201423Y-99295702D01*
X126264764Y-99347685D01*
X126447260Y-99445232D01*
X126645280Y-99505300D01*
X126645279Y-99505300D01*
X126663743Y-99507118D01*
X126851214Y-99525583D01*
X127057148Y-99505300D01*
X127255168Y-99445232D01*
X127437664Y-99347685D01*
X127597624Y-99216410D01*
X127728899Y-99056450D01*
X127826446Y-98873954D01*
X127886514Y-98675934D01*
X127906797Y-98470000D01*
X127886514Y-98264066D01*
X127826446Y-98066046D01*
X127728899Y-97883550D01*
X127676916Y-97820209D01*
X127597624Y-97723589D01*
X127479891Y-97626969D01*
X127437664Y-97592315D01*
X127255168Y-97494768D01*
X127057148Y-97434700D01*
X127057146Y-97434699D01*
X127057148Y-97434699D01*
X126851214Y-97414417D01*
X126645281Y-97434699D01*
X126447257Y-97494769D01*
X126337112Y-97553643D01*
X126264764Y-97592315D01*
X126264762Y-97592316D01*
X126264761Y-97592317D01*
X126104803Y-97723589D01*
X125973531Y-97883547D01*
X125973529Y-97883550D01*
X125962839Y-97903550D01*
X125875982Y-98066045D01*
X125874327Y-98071501D01*
X125836027Y-98129938D01*
X125772213Y-98158391D01*
X125755668Y-98159500D01*
X124098579Y-98159500D01*
X124031540Y-98139815D01*
X123985785Y-98087011D01*
X123979919Y-98071497D01*
X123978265Y-98066045D01*
X123975232Y-98056046D01*
X123877685Y-97873550D01*
X123825702Y-97810209D01*
X123746410Y-97713589D01*
X123623005Y-97612315D01*
X123586450Y-97582315D01*
X123403954Y-97484768D01*
X123205934Y-97424700D01*
X123205932Y-97424699D01*
X123205934Y-97424699D01*
X123000000Y-97404417D01*
X122794067Y-97424699D01*
X122596043Y-97484769D01*
X122485898Y-97543643D01*
X122413550Y-97582315D01*
X122413548Y-97582316D01*
X122413547Y-97582317D01*
X122253589Y-97713589D01*
X122122317Y-97873547D01*
X122122315Y-97873550D01*
X122116970Y-97883550D01*
X122024769Y-98056043D01*
X122024768Y-98056045D01*
X122024768Y-98056046D01*
X122021735Y-98066045D01*
X121964699Y-98254067D01*
X121944417Y-98460000D01*
X111914714Y-98460000D01*
X111914714Y-95920000D01*
X121944417Y-95920000D01*
X121964699Y-96125932D01*
X121967733Y-96135934D01*
X122024768Y-96323954D01*
X122122315Y-96506450D01*
X122156969Y-96548677D01*
X122253589Y-96666410D01*
X122350209Y-96745702D01*
X122413550Y-96797685D01*
X122596046Y-96895232D01*
X122794066Y-96955300D01*
X122794065Y-96955300D01*
X122812529Y-96957118D01*
X123000000Y-96975583D01*
X123205934Y-96955300D01*
X123403954Y-96895232D01*
X123586450Y-96797685D01*
X123746410Y-96666410D01*
X123877685Y-96506450D01*
X123975232Y-96323954D01*
X123976887Y-96318499D01*
X124015187Y-96260062D01*
X124079001Y-96231609D01*
X124095546Y-96230500D01*
X125752635Y-96230500D01*
X125819674Y-96250185D01*
X125865429Y-96302989D01*
X125871295Y-96318503D01*
X125875982Y-96333954D01*
X125973529Y-96516450D01*
X125973531Y-96516452D01*
X126104803Y-96676410D01*
X126201423Y-96755702D01*
X126264764Y-96807685D01*
X126447260Y-96905232D01*
X126645280Y-96965300D01*
X126645279Y-96965300D01*
X126663743Y-96967118D01*
X126851214Y-96985583D01*
X127057148Y-96965300D01*
X127255168Y-96905232D01*
X127437664Y-96807685D01*
X127597624Y-96676410D01*
X127728899Y-96516450D01*
X127826446Y-96333954D01*
X127886514Y-96135934D01*
X127906797Y-95930000D01*
X127886514Y-95724066D01*
X127826446Y-95526046D01*
X127728899Y-95343550D01*
X127676916Y-95280209D01*
X127597624Y-95183589D01*
X127479891Y-95086969D01*
X127471700Y-95080247D01*
X184113714Y-95080247D01*
X184113714Y-96819752D01*
X184125345Y-96878229D01*
X184125346Y-96878230D01*
X184169661Y-96944552D01*
X184235983Y-96988867D01*
X184235984Y-96988868D01*
X184294461Y-97000499D01*
X184294464Y-97000500D01*
X184294466Y-97000500D01*
X186033964Y-97000500D01*
X186033965Y-97000499D01*
X186048782Y-96997552D01*
X186092443Y-96988868D01*
X186092443Y-96988867D01*
X186092445Y-96988867D01*
X186158766Y-96944552D01*
X186203081Y-96878231D01*
X186203081Y-96878229D01*
X186203082Y-96878229D01*
X186214713Y-96819752D01*
X186214714Y-96819750D01*
X186214714Y-95080249D01*
X186214713Y-95080247D01*
X186203082Y-95021770D01*
X186203081Y-95021769D01*
X186158766Y-94955447D01*
X186092444Y-94911132D01*
X186092443Y-94911131D01*
X186033966Y-94899500D01*
X186033962Y-94899500D01*
X184294466Y-94899500D01*
X184294461Y-94899500D01*
X184235984Y-94911131D01*
X184235983Y-94911132D01*
X184169661Y-94955447D01*
X184125346Y-95021769D01*
X184125345Y-95021770D01*
X184113714Y-95080247D01*
X127471700Y-95080247D01*
X127437664Y-95052315D01*
X127255168Y-94954768D01*
X127057148Y-94894700D01*
X127057146Y-94894699D01*
X127057148Y-94894699D01*
X126851214Y-94874417D01*
X126645281Y-94894699D01*
X126447257Y-94954769D01*
X126337112Y-95013643D01*
X126264764Y-95052315D01*
X126264762Y-95052316D01*
X126264761Y-95052317D01*
X126104803Y-95183589D01*
X125973531Y-95343547D01*
X125875983Y-95526043D01*
X125875982Y-95526046D01*
X125871295Y-95541497D01*
X125832997Y-95599935D01*
X125769184Y-95628391D01*
X125752635Y-95629500D01*
X124101612Y-95629500D01*
X124034573Y-95609815D01*
X123988818Y-95557011D01*
X123982952Y-95541497D01*
X123975232Y-95516046D01*
X123877685Y-95333550D01*
X123754617Y-95183590D01*
X123746410Y-95173589D01*
X123628677Y-95076969D01*
X123586450Y-95042315D01*
X123403954Y-94944768D01*
X123205934Y-94884700D01*
X123205932Y-94884699D01*
X123205934Y-94884699D01*
X123000000Y-94864417D01*
X122794067Y-94884699D01*
X122596043Y-94944769D01*
X122485898Y-95003643D01*
X122413550Y-95042315D01*
X122413548Y-95042316D01*
X122413547Y-95042317D01*
X122253589Y-95173589D01*
X122122317Y-95333547D01*
X122122315Y-95333550D01*
X122116970Y-95343550D01*
X122024769Y-95516043D01*
X122024768Y-95516045D01*
X122024768Y-95516046D01*
X122021735Y-95526046D01*
X121964699Y-95714067D01*
X121944417Y-95920000D01*
X111914714Y-95920000D01*
X111914714Y-92255413D01*
X111915186Y-92244606D01*
X111928953Y-92087248D01*
X111932704Y-92065970D01*
X111972184Y-91918627D01*
X111979576Y-91898321D01*
X111997966Y-91858885D01*
X112044038Y-91760082D01*
X112054845Y-91741365D01*
X112142327Y-91616430D01*
X112156220Y-91599873D01*
X112264078Y-91492015D01*
X112280629Y-91478126D01*
X112405583Y-91390633D01*
X112424278Y-91379839D01*
X112562537Y-91315369D01*
X112582838Y-91307981D01*
X112730176Y-91268503D01*
X112751453Y-91264751D01*
X112872321Y-91254178D01*
X112908975Y-91250972D01*
X112919781Y-91250500D01*
X112980101Y-91250501D01*
X112980105Y-91250500D01*
X185184108Y-91250500D01*
X185245572Y-91250500D01*
X185254418Y-91250816D01*
G37*
G04 #@! TD.AperFunction*
G04 #@! TD*
M02*
