G04 #@! TF.GenerationSoftware,KiCad,Pcbnew,8.0.8*
G04 #@! TF.CreationDate,2025-10-01T21:52:52+01:00*
G04 #@! TF.ProjectId,3S_coinHolder_LIR1654.kicad_pro,33535f63-6f69-46e4-986f-6c6465725f4c,rev?*
G04 #@! TF.SameCoordinates,Original*
G04 #@! TF.FileFunction,Legend,Bot*
G04 #@! TF.FilePolarity,Positive*
%FSLAX46Y46*%
G04 Gerber Fmt 4.6, Leading zero omitted, Abs format (unit mm)*
G04 Created by KiCad (PCBNEW 8.0.8) date 2025-10-01 21:52:52*
%MOMM*%
%LPD*%
G01*
G04 APERTURE LIST*
G04 Aperture macros list*
%AMRoundRect*
0 Rectangle with rounded corners*
0 $1 Rounding radius*
0 $2 $3 $4 $5 $6 $7 $8 $9 X,Y pos of 4 corners*
0 Add a 4 corners polygon primitive as box body*
4,1,4,$2,$3,$4,$5,$6,$7,$8,$9,$2,$3,0*
0 Add four circle primitives for the rounded corners*
1,1,$1+$1,$2,$3*
1,1,$1+$1,$4,$5*
1,1,$1+$1,$6,$7*
1,1,$1+$1,$8,$9*
0 Add four rect primitives between the rounded corners*
20,1,$1+$1,$2,$3,$4,$5,0*
20,1,$1+$1,$4,$5,$6,$7,0*
20,1,$1+$1,$6,$7,$8,$9,0*
20,1,$1+$1,$8,$9,$2,$3,0*%
G04 Aperture macros list end*
%ADD10C,0.300000*%
%ADD11C,0.127000*%
%ADD12C,0.120000*%
%ADD13R,1.700000X1.700000*%
%ADD14O,1.700000X1.700000*%
%ADD15RoundRect,0.102000X2.586995X1.071568X-1.071568X2.586995X-2.586995X-1.071568X1.071568X-2.586995X0*%
%ADD16RoundRect,0.102000X2.077435X0.860502X-0.860502X2.077435X-2.077435X-0.860502X0.860502X-2.077435X0*%
G04 APERTURE END LIST*
D10*
X184554510Y-106479400D02*
X185697368Y-106479400D01*
X184554510Y-92729400D02*
X185697368Y-92729400D01*
X185125939Y-93300828D02*
X185125939Y-92157971D01*
D11*
G04 #@! TO.C,BT1*
X166287275Y-100227037D02*
X167883883Y-104303321D01*
X166922529Y-98693397D02*
X166287275Y-100227037D01*
X167883883Y-104303321D02*
X174480383Y-107035681D01*
X168384380Y-95164177D02*
X169698898Y-91990651D01*
X169698898Y-91990651D02*
X181903346Y-97045899D01*
X174480383Y-107035681D02*
X178491723Y-105282285D01*
X178491723Y-105282285D02*
X179126978Y-103748645D01*
X181903346Y-97045899D02*
X180588829Y-100219425D01*
G04 #@! TO.C,BT2*
X148537275Y-100227037D02*
X150133883Y-104303321D01*
X149172529Y-98693397D02*
X148537275Y-100227037D01*
X150133883Y-104303321D02*
X156730383Y-107035681D01*
X150634380Y-95164177D02*
X151948898Y-91990651D01*
X151948898Y-91990651D02*
X164153346Y-97045899D01*
X156730383Y-107035681D02*
X160741723Y-105282285D01*
X160741723Y-105282285D02*
X161376978Y-103748645D01*
X164153346Y-97045899D02*
X162838829Y-100219425D01*
D12*
G04 #@! TO.C,J2*
X125521214Y-94600000D02*
X125521214Y-102280000D01*
X128181214Y-94600000D02*
X125521214Y-94600000D01*
X128181214Y-94600000D02*
X128181214Y-102280000D01*
X128181214Y-102280000D02*
X125521214Y-102280000D01*
X128181214Y-103550000D02*
X128181214Y-104880000D01*
X128181214Y-104880000D02*
X126851214Y-104880000D01*
G04 #@! TO.C,J1*
X183834214Y-94620000D02*
X185164214Y-94620000D01*
X183834214Y-95950000D02*
X183834214Y-94620000D01*
X183834214Y-97220000D02*
X186494214Y-97220000D01*
X183834214Y-104900000D02*
X183834214Y-97220000D01*
X183834214Y-104900000D02*
X186494214Y-104900000D01*
X186494214Y-104900000D02*
X186494214Y-97220000D01*
D11*
G04 #@! TO.C,BT3*
X130787275Y-100227037D02*
X132383883Y-104303321D01*
X131422529Y-98693397D02*
X130787275Y-100227037D01*
X132383883Y-104303321D02*
X138980383Y-107035681D01*
X132884380Y-95164177D02*
X134198898Y-91990651D01*
X134198898Y-91990651D02*
X146403346Y-97045899D01*
X138980383Y-107035681D02*
X142991723Y-105282285D01*
X142991723Y-105282285D02*
X143626978Y-103748645D01*
X146403346Y-97045899D02*
X145088829Y-100219425D01*
G04 #@! TD*
%LPC*%
D13*
G04 #@! TO.C,J3*
X123000000Y-103540000D03*
D14*
X123000000Y-101000000D03*
X123000000Y-98460000D03*
X123000000Y-95920000D03*
G04 #@! TD*
D15*
G04 #@! TO.C,BT1*
X173755679Y-99456411D03*
D16*
X180500000Y-102250000D03*
X167011358Y-96662822D03*
G04 #@! TD*
D15*
G04 #@! TO.C,BT2*
X156005679Y-99456411D03*
D16*
X162750000Y-102250000D03*
X149261358Y-96662822D03*
G04 #@! TD*
D13*
G04 #@! TO.C,J2*
X126851214Y-103550000D03*
D14*
X126851214Y-101010000D03*
X126851214Y-98470000D03*
X126851214Y-95930000D03*
G04 #@! TD*
D13*
G04 #@! TO.C,J1*
X185164214Y-95950000D03*
D14*
X185164214Y-98490000D03*
X185164214Y-101030000D03*
X185164214Y-103570000D03*
G04 #@! TD*
D15*
G04 #@! TO.C,BT3*
X138255679Y-99456411D03*
D16*
X145000000Y-102250000D03*
X131511358Y-96662822D03*
G04 #@! TD*
%LPD*%
M02*
