%TF.GenerationSoftware,KiCad,Pcbnew,8.0.8*%
%TF.CreationDate,2025-10-01T21:52:52+01:00*%
%TF.ProjectId,3S_coinHolder_LIR1654.kicad_pro,33535f63-6f69-46e4-986f-6c6465725f4c,rev?*%
%TF.SameCoordinates,Original*%
%TF.FileFunction,Drillmap*%
%TF.FilePolarity,Positive*%
%FSLAX45Y45*%
G04 Gerber Fmt 4.5, Leading zero omitted, Abs format (unit mm)*
G04 Created by KiCad (PCBNEW 8.0.8) date 2025-10-01 21:52:52*
%MOMM*%
%LPD*%
G01*
G04 APERTURE LIST*
%ADD10C,0.050000*%
%ADD11C,0.200000*%
G04 APERTURE END LIST*
D10*
X11291421Y-10875000D02*
G75*
G02*
X11141420Y-10725000I-1J150000D01*
G01*
X18725000Y-9275000D02*
X18725000Y-10675000D01*
X18525000Y-9075000D02*
G75*
G02*
X18725000Y-9275000I0J-200000D01*
G01*
X18725000Y-10675000D02*
G75*
G02*
X18525000Y-10875000I-200000J0D01*
G01*
X11141421Y-9225000D02*
X11141421Y-10725000D01*
X18525000Y-10875000D02*
X11291421Y-10875000D01*
X18525000Y-9075000D02*
X11291421Y-9075000D01*
X11141421Y-9225000D02*
G75*
G02*
X11291421Y-9075001I149999J0D01*
G01*
D11*
X11399698Y-11188984D02*
X11399698Y-10988984D01*
X11399698Y-10988984D02*
X11447317Y-10988984D01*
X11447317Y-10988984D02*
X11475889Y-10998508D01*
X11475889Y-10998508D02*
X11494936Y-11017555D01*
X11494936Y-11017555D02*
X11504460Y-11036603D01*
X11504460Y-11036603D02*
X11513984Y-11074698D01*
X11513984Y-11074698D02*
X11513984Y-11103270D01*
X11513984Y-11103270D02*
X11504460Y-11141365D01*
X11504460Y-11141365D02*
X11494936Y-11160412D01*
X11494936Y-11160412D02*
X11475889Y-11179460D01*
X11475889Y-11179460D02*
X11447317Y-11188984D01*
X11447317Y-11188984D02*
X11399698Y-11188984D01*
X11599698Y-11188984D02*
X11599698Y-11055650D01*
X11599698Y-11093746D02*
X11609222Y-11074698D01*
X11609222Y-11074698D02*
X11618746Y-11065174D01*
X11618746Y-11065174D02*
X11637793Y-11055650D01*
X11637793Y-11055650D02*
X11656841Y-11055650D01*
X11723508Y-11188984D02*
X11723508Y-11055650D01*
X11723508Y-10988984D02*
X11713984Y-10998508D01*
X11713984Y-10998508D02*
X11723508Y-11008031D01*
X11723508Y-11008031D02*
X11733031Y-10998508D01*
X11733031Y-10998508D02*
X11723508Y-10988984D01*
X11723508Y-10988984D02*
X11723508Y-11008031D01*
X11847317Y-11188984D02*
X11828270Y-11179460D01*
X11828270Y-11179460D02*
X11818746Y-11160412D01*
X11818746Y-11160412D02*
X11818746Y-10988984D01*
X11952079Y-11188984D02*
X11933031Y-11179460D01*
X11933031Y-11179460D02*
X11923508Y-11160412D01*
X11923508Y-11160412D02*
X11923508Y-10988984D01*
X12180651Y-11188984D02*
X12180651Y-10988984D01*
X12180651Y-10988984D02*
X12247317Y-11131841D01*
X12247317Y-11131841D02*
X12313984Y-10988984D01*
X12313984Y-10988984D02*
X12313984Y-11188984D01*
X12494936Y-11188984D02*
X12494936Y-11084222D01*
X12494936Y-11084222D02*
X12485412Y-11065174D01*
X12485412Y-11065174D02*
X12466365Y-11055650D01*
X12466365Y-11055650D02*
X12428270Y-11055650D01*
X12428270Y-11055650D02*
X12409222Y-11065174D01*
X12494936Y-11179460D02*
X12475889Y-11188984D01*
X12475889Y-11188984D02*
X12428270Y-11188984D01*
X12428270Y-11188984D02*
X12409222Y-11179460D01*
X12409222Y-11179460D02*
X12399698Y-11160412D01*
X12399698Y-11160412D02*
X12399698Y-11141365D01*
X12399698Y-11141365D02*
X12409222Y-11122317D01*
X12409222Y-11122317D02*
X12428270Y-11112793D01*
X12428270Y-11112793D02*
X12475889Y-11112793D01*
X12475889Y-11112793D02*
X12494936Y-11103270D01*
X12590174Y-11055650D02*
X12590174Y-11255650D01*
X12590174Y-11065174D02*
X12609222Y-11055650D01*
X12609222Y-11055650D02*
X12647317Y-11055650D01*
X12647317Y-11055650D02*
X12666365Y-11065174D01*
X12666365Y-11065174D02*
X12675889Y-11074698D01*
X12675889Y-11074698D02*
X12685412Y-11093746D01*
X12685412Y-11093746D02*
X12685412Y-11150889D01*
X12685412Y-11150889D02*
X12675889Y-11169936D01*
X12675889Y-11169936D02*
X12666365Y-11179460D01*
X12666365Y-11179460D02*
X12647317Y-11188984D01*
X12647317Y-11188984D02*
X12609222Y-11188984D01*
X12609222Y-11188984D02*
X12590174Y-11179460D01*
X12771127Y-11169936D02*
X12780651Y-11179460D01*
X12780651Y-11179460D02*
X12771127Y-11188984D01*
X12771127Y-11188984D02*
X12761603Y-11179460D01*
X12761603Y-11179460D02*
X12771127Y-11169936D01*
X12771127Y-11169936D02*
X12771127Y-11188984D01*
X12771127Y-11065174D02*
X12780651Y-11074698D01*
X12780651Y-11074698D02*
X12771127Y-11084222D01*
X12771127Y-11084222D02*
X12761603Y-11074698D01*
X12761603Y-11074698D02*
X12771127Y-11065174D01*
X12771127Y-11065174D02*
X12771127Y-11084222D01*
M02*
