G04 #@! TF.GenerationSoftware,KiCad,Pcbnew,8.0.8*
G04 #@! TF.CreationDate,2025-10-01T21:52:52+01:00*
G04 #@! TF.ProjectId,3S_coinHolder_LIR1654.kicad_pro,33535f63-6f69-46e4-986f-6c6465725f4c,rev?*
G04 #@! TF.SameCoordinates,Original*
G04 #@! TF.FileFunction,Copper,L2,Bot*
G04 #@! TF.FilePolarity,Positive*
%FSLAX46Y46*%
G04 Gerber Fmt 4.6, Leading zero omitted, Abs format (unit mm)*
G04 Created by KiCad (PCBNEW 8.0.8) date 2025-10-01 21:52:52*
%MOMM*%
%LPD*%
G01*
G04 APERTURE LIST*
G04 Aperture macros list*
%AMRotRect*
0 Rectangle, with rotation*
0 The origin of the aperture is its center*
0 $1 length*
0 $2 width*
0 $3 Rotation angle, in degrees counterclockwise*
0 Add horizontal line*
21,1,$1,$2,0,0,$3*%
G04 Aperture macros list end*
G04 #@! TA.AperFunction,ComponentPad*
%ADD10R,1.700000X1.700000*%
G04 #@! TD*
G04 #@! TA.AperFunction,ComponentPad*
%ADD11O,1.700000X1.700000*%
G04 #@! TD*
G04 #@! TA.AperFunction,SMDPad,CuDef*
%ADD12RotRect,3.960000X3.960000X157.500000*%
G04 #@! TD*
G04 #@! TA.AperFunction,SMDPad,CuDef*
%ADD13RotRect,3.180000X3.180000X157.500000*%
G04 #@! TD*
G04 #@! TA.AperFunction,ViaPad*
%ADD14C,0.600000*%
G04 #@! TD*
G04 #@! TA.AperFunction,Conductor*
%ADD15C,0.200000*%
G04 #@! TD*
G04 APERTURE END LIST*
D10*
G04 #@! TO.P,J3,1,Pin_1*
G04 #@! TO.N,Net-(J2-Pin_1)*
X123000000Y-103540000D03*
D11*
G04 #@! TO.P,J3,2,Pin_2*
G04 #@! TO.N,Net-(J2-Pin_2)*
X123000000Y-101000000D03*
G04 #@! TO.P,J3,3,Pin_3*
G04 #@! TO.N,Net-(J2-Pin_3)*
X123000000Y-98460000D03*
G04 #@! TO.P,J3,4,Pin_4*
G04 #@! TO.N,Net-(J2-Pin_4)*
X123000000Y-95920000D03*
G04 #@! TD*
D12*
G04 #@! TO.P,BT1,N*
G04 #@! TO.N,/V_{C2}*
X173755679Y-99456411D03*
D13*
G04 #@! TO.P,BT1,P1*
G04 #@! TO.N,/V_{C1}*
X180500000Y-102250000D03*
G04 #@! TO.P,BT1,P2*
X167011358Y-96662822D03*
G04 #@! TD*
D12*
G04 #@! TO.P,BT2,N*
G04 #@! TO.N,/V_{C3}*
X156005679Y-99456411D03*
D13*
G04 #@! TO.P,BT2,P1*
G04 #@! TO.N,/V_{C2}*
X162750000Y-102250000D03*
G04 #@! TO.P,BT2,P2*
X149261358Y-96662822D03*
G04 #@! TD*
D10*
G04 #@! TO.P,J2,1,Pin_1*
G04 #@! TO.N,Net-(J2-Pin_1)*
X126851214Y-103550000D03*
D11*
G04 #@! TO.P,J2,2,Pin_2*
G04 #@! TO.N,Net-(J2-Pin_2)*
X126851214Y-101010000D03*
G04 #@! TO.P,J2,3,Pin_3*
G04 #@! TO.N,Net-(J2-Pin_3)*
X126851214Y-98470000D03*
G04 #@! TO.P,J2,4,Pin_4*
G04 #@! TO.N,Net-(J2-Pin_4)*
X126851214Y-95930000D03*
G04 #@! TD*
D10*
G04 #@! TO.P,J1,1,Pin_1*
G04 #@! TO.N,/V_{C1}*
X185164214Y-95950000D03*
D11*
G04 #@! TO.P,J1,2,Pin_2*
G04 #@! TO.N,/V_{C2}*
X185164214Y-98490000D03*
G04 #@! TO.P,J1,3,Pin_3*
G04 #@! TO.N,/V_{C3}*
X185164214Y-101030000D03*
G04 #@! TO.P,J1,4,Pin_4*
G04 #@! TO.N,GND*
X185164214Y-103570000D03*
G04 #@! TD*
D12*
G04 #@! TO.P,BT3,N*
G04 #@! TO.N,GND*
X138255679Y-99456411D03*
D13*
G04 #@! TO.P,BT3,P1*
G04 #@! TO.N,/V_{C3}*
X145000000Y-102250000D03*
G04 #@! TO.P,BT3,P2*
X131511358Y-96662822D03*
G04 #@! TD*
D14*
G04 #@! TO.N,/V_{C3}*
X156005679Y-99456411D03*
G04 #@! TO.N,GND*
X138255679Y-99456411D03*
G04 #@! TO.N,/V_{C2}*
X173731045Y-99481045D03*
G04 #@! TD*
D15*
G04 #@! TO.N,/V_{C3}*
X145000000Y-102250000D02*
X153212090Y-102250000D01*
X131511358Y-96662822D02*
X132424180Y-95750000D01*
X132424180Y-95750000D02*
X139750000Y-95750000D01*
X145000000Y-101000000D02*
X145000000Y-102250000D01*
X139750000Y-95750000D02*
X145000000Y-101000000D01*
X153212090Y-102250000D02*
X156005679Y-99456411D01*
G04 #@! TO.N,/V_{C2}*
X162750000Y-102250000D02*
X170962090Y-102250000D01*
X173755679Y-99456411D02*
X174212090Y-99000000D01*
X149261358Y-96662822D02*
X150174180Y-95750000D01*
X157500000Y-95750000D02*
X162750000Y-101000000D01*
X174212090Y-99000000D02*
X174500000Y-99000000D01*
X173731045Y-99481045D02*
X173755679Y-99456411D01*
X170962090Y-102250000D02*
X173731045Y-99481045D01*
X150174180Y-95750000D02*
X157500000Y-95750000D01*
X162750000Y-101000000D02*
X162750000Y-102250000D01*
X174500000Y-99000000D02*
X175010000Y-98490000D01*
G04 #@! TO.N,/V_{C1}*
X175250000Y-95750000D02*
X180500000Y-101000000D01*
X167011358Y-96662822D02*
X167924180Y-95750000D01*
X180500000Y-101000000D02*
X180500000Y-102250000D01*
X175250000Y-95750000D02*
X184964214Y-95750000D01*
X184964214Y-95750000D02*
X185164214Y-95950000D01*
X167924180Y-95750000D02*
X175250000Y-95750000D01*
G04 #@! TD*
G04 #@! TA.AperFunction,Conductor*
G04 #@! TO.N,GND*
G36*
X185254418Y-91250816D02*
G01*
X185454561Y-91265130D01*
X185472063Y-91267647D01*
X185663797Y-91309355D01*
X185680755Y-91314334D01*
X185856354Y-91379830D01*
X185864609Y-91382909D01*
X185880701Y-91390259D01*
X186052904Y-91484288D01*
X186067784Y-91493849D01*
X186209414Y-91599873D01*
X186224867Y-91611441D01*
X186238237Y-91623027D01*
X186376972Y-91761762D01*
X186388558Y-91775132D01*
X186495981Y-91918632D01*
X186506146Y-91932210D01*
X186515711Y-91947095D01*
X186609740Y-92119298D01*
X186617090Y-92135390D01*
X186685662Y-92319236D01*
X186690646Y-92336212D01*
X186732351Y-92527931D01*
X186734869Y-92545442D01*
X186749184Y-92745580D01*
X186749500Y-92754427D01*
X186749500Y-103360322D01*
X186729815Y-103427361D01*
X186677011Y-103473116D01*
X186607853Y-103483060D01*
X186544297Y-103454035D01*
X186506523Y-103395257D01*
X186501972Y-103371130D01*
X186498783Y-103334683D01*
X186498781Y-103334673D01*
X186437647Y-103106516D01*
X186437643Y-103106507D01*
X186337814Y-102892422D01*
X186337813Y-102892420D01*
X186202327Y-102698926D01*
X186202322Y-102698920D01*
X186035296Y-102531894D01*
X185841792Y-102396399D01*
X185627706Y-102296570D01*
X185627700Y-102296567D01*
X185505563Y-102263841D01*
X185445903Y-102227476D01*
X185415374Y-102164629D01*
X185423669Y-102095253D01*
X185468154Y-102041375D01*
X185501658Y-102025407D01*
X185568168Y-102005232D01*
X185750664Y-101907685D01*
X185910624Y-101776410D01*
X186041899Y-101616450D01*
X186139446Y-101433954D01*
X186199514Y-101235934D01*
X186219797Y-101030000D01*
X186199514Y-100824066D01*
X186139446Y-100626046D01*
X186041899Y-100443550D01*
X185980435Y-100368655D01*
X185910624Y-100283589D01*
X185792891Y-100186969D01*
X185750664Y-100152315D01*
X185568168Y-100054768D01*
X185370148Y-99994700D01*
X185370146Y-99994699D01*
X185370148Y-99994699D01*
X185164214Y-99974417D01*
X184958281Y-99994699D01*
X184760257Y-100054769D01*
X184659681Y-100108529D01*
X184577764Y-100152315D01*
X184577762Y-100152316D01*
X184577761Y-100152317D01*
X184417803Y-100283589D01*
X184286531Y-100443547D01*
X184286529Y-100443550D01*
X184272657Y-100469503D01*
X184188983Y-100626043D01*
X184128913Y-100824067D01*
X184108631Y-101030000D01*
X184128913Y-101235932D01*
X184131648Y-101244948D01*
X184188982Y-101433954D01*
X184286529Y-101616450D01*
X184286531Y-101616452D01*
X184417803Y-101776410D01*
X184499311Y-101843301D01*
X184577764Y-101907685D01*
X184760260Y-102005232D01*
X184826765Y-102025405D01*
X184885203Y-102063702D01*
X184913660Y-102127514D01*
X184903101Y-102196581D01*
X184856877Y-102248975D01*
X184822864Y-102263841D01*
X184700728Y-102296567D01*
X184700721Y-102296570D01*
X184486636Y-102396399D01*
X184486634Y-102396400D01*
X184293140Y-102531886D01*
X184293134Y-102531891D01*
X184126105Y-102698920D01*
X184126100Y-102698926D01*
X183990614Y-102892420D01*
X183990613Y-102892422D01*
X183890784Y-103106507D01*
X183890781Y-103106513D01*
X183833578Y-103319999D01*
X183833578Y-103320000D01*
X184731202Y-103320000D01*
X184698289Y-103377007D01*
X184664214Y-103504174D01*
X184664214Y-103635826D01*
X184698289Y-103762993D01*
X184731202Y-103820000D01*
X183833578Y-103820000D01*
X183890781Y-104033486D01*
X183890784Y-104033492D01*
X183990613Y-104247578D01*
X184126108Y-104441082D01*
X184293131Y-104608105D01*
X184486635Y-104743600D01*
X184700721Y-104843429D01*
X184700730Y-104843433D01*
X184914214Y-104900634D01*
X184914214Y-104003012D01*
X184971221Y-104035925D01*
X185098388Y-104070000D01*
X185230040Y-104070000D01*
X185357207Y-104035925D01*
X185414214Y-104003012D01*
X185414214Y-104900633D01*
X185627697Y-104843433D01*
X185627706Y-104843429D01*
X185841792Y-104743600D01*
X186035296Y-104608105D01*
X186202319Y-104441082D01*
X186337814Y-104247578D01*
X186437643Y-104033492D01*
X186437647Y-104033483D01*
X186498781Y-103805326D01*
X186498783Y-103805315D01*
X186501972Y-103768870D01*
X186527424Y-103703801D01*
X186584015Y-103662822D01*
X186653777Y-103658944D01*
X186714561Y-103693398D01*
X186747069Y-103755245D01*
X186749500Y-103779677D01*
X186749500Y-106745572D01*
X186749184Y-106754419D01*
X186734869Y-106954557D01*
X186732351Y-106972068D01*
X186690646Y-107163787D01*
X186685662Y-107180763D01*
X186617090Y-107364609D01*
X186609740Y-107380701D01*
X186515711Y-107552904D01*
X186506146Y-107567789D01*
X186388558Y-107724867D01*
X186376972Y-107738237D01*
X186238237Y-107876972D01*
X186224867Y-107888558D01*
X186067789Y-108006146D01*
X186052904Y-108015711D01*
X185880701Y-108109740D01*
X185864609Y-108117090D01*
X185680763Y-108185662D01*
X185663787Y-108190646D01*
X185472068Y-108232351D01*
X185454557Y-108234869D01*
X185273779Y-108247799D01*
X185254417Y-108249184D01*
X185245572Y-108249500D01*
X112987711Y-108249500D01*
X112987695Y-108249499D01*
X112919618Y-108249499D01*
X112908812Y-108249027D01*
X112751456Y-108235262D01*
X112730169Y-108231509D01*
X112582836Y-108192032D01*
X112562526Y-108184640D01*
X112424287Y-108120180D01*
X112405567Y-108109372D01*
X112280627Y-108021889D01*
X112264069Y-108007996D01*
X112156209Y-107900137D01*
X112142321Y-107883586D01*
X112054829Y-107758636D01*
X112044025Y-107739922D01*
X112025313Y-107699794D01*
X111979560Y-107601678D01*
X111972170Y-107581373D01*
X111968530Y-107567789D01*
X111932691Y-107434037D01*
X111928939Y-107412752D01*
X111915186Y-107255553D01*
X111914714Y-107244746D01*
X111914714Y-102670247D01*
X121949500Y-102670247D01*
X121949500Y-104409752D01*
X121961131Y-104468229D01*
X121961132Y-104468230D01*
X122005447Y-104534552D01*
X122071769Y-104578867D01*
X122071770Y-104578868D01*
X122130247Y-104590499D01*
X122130250Y-104590500D01*
X122130252Y-104590500D01*
X123869750Y-104590500D01*
X123869751Y-104590499D01*
X123884568Y-104587552D01*
X123928229Y-104578868D01*
X123928229Y-104578867D01*
X123928231Y-104578867D01*
X123994552Y-104534552D01*
X124038867Y-104468231D01*
X124038867Y-104468229D01*
X124038868Y-104468229D01*
X124050499Y-104409752D01*
X124050500Y-104409750D01*
X124050500Y-102680247D01*
X125800714Y-102680247D01*
X125800714Y-104419752D01*
X125812345Y-104478229D01*
X125812346Y-104478230D01*
X125856661Y-104544552D01*
X125922983Y-104588867D01*
X125922984Y-104588868D01*
X125981461Y-104600499D01*
X125981464Y-104600500D01*
X125981466Y-104600500D01*
X127720964Y-104600500D01*
X127720965Y-104600499D01*
X127735782Y-104597552D01*
X127779443Y-104588868D01*
X127779443Y-104588867D01*
X127779445Y-104588867D01*
X127845766Y-104544552D01*
X127890081Y-104478231D01*
X127890081Y-104478229D01*
X127890082Y-104478229D01*
X127901713Y-104419752D01*
X127901714Y-104419750D01*
X127901714Y-102680249D01*
X127901713Y-102680247D01*
X127890082Y-102621770D01*
X127890081Y-102621769D01*
X127845766Y-102555447D01*
X127779444Y-102511132D01*
X127779443Y-102511131D01*
X127720966Y-102499500D01*
X127720962Y-102499500D01*
X125981466Y-102499500D01*
X125981461Y-102499500D01*
X125922984Y-102511131D01*
X125922983Y-102511132D01*
X125856661Y-102555447D01*
X125812346Y-102621769D01*
X125812345Y-102621770D01*
X125800714Y-102680247D01*
X124050500Y-102680247D01*
X124050500Y-102670249D01*
X124050499Y-102670247D01*
X124038868Y-102611770D01*
X124038867Y-102611769D01*
X123994552Y-102545447D01*
X123928230Y-102501132D01*
X123928229Y-102501131D01*
X123869752Y-102489500D01*
X123869748Y-102489500D01*
X122130252Y-102489500D01*
X122130247Y-102489500D01*
X122071770Y-102501131D01*
X122071769Y-102501132D01*
X122005447Y-102545447D01*
X121961132Y-102611769D01*
X121961131Y-102611770D01*
X121949500Y-102670247D01*
X111914714Y-102670247D01*
X111914714Y-101000000D01*
X121944417Y-101000000D01*
X121964699Y-101205932D01*
X121985610Y-101274865D01*
X122024768Y-101403954D01*
X122122315Y-101586450D01*
X122146935Y-101616450D01*
X122253589Y-101746410D01*
X122328459Y-101807853D01*
X122413550Y-101877685D01*
X122596046Y-101975232D01*
X122794066Y-102035300D01*
X122794065Y-102035300D01*
X122812529Y-102037118D01*
X123000000Y-102055583D01*
X123205934Y-102035300D01*
X123403954Y-101975232D01*
X123586450Y-101877685D01*
X123746410Y-101746410D01*
X123877685Y-101586450D01*
X123975232Y-101403954D01*
X124035300Y-101205934D01*
X124054598Y-101010000D01*
X125795631Y-101010000D01*
X125815913Y-101215932D01*
X125824715Y-101244948D01*
X125875982Y-101413954D01*
X125973529Y-101596450D01*
X125989944Y-101616452D01*
X126104803Y-101756410D01*
X126201423Y-101835702D01*
X126264764Y-101887685D01*
X126447260Y-101985232D01*
X126645280Y-102045300D01*
X126645279Y-102045300D01*
X126663743Y-102047118D01*
X126851214Y-102065583D01*
X127057148Y-102045300D01*
X127255168Y-101985232D01*
X127437664Y-101887685D01*
X127491746Y-101843301D01*
X137537592Y-101843301D01*
X139180087Y-102523645D01*
X139237559Y-102540521D01*
X139381241Y-102545654D01*
X139381244Y-102545653D01*
X139520557Y-102510096D01*
X139644200Y-102436736D01*
X139644213Y-102436726D01*
X139742179Y-102331501D01*
X139742180Y-102331501D01*
X139770882Y-102278938D01*
X140451228Y-100636436D01*
X140451228Y-100636435D01*
X138390978Y-99783050D01*
X137537592Y-101843301D01*
X127491746Y-101843301D01*
X127597624Y-101756410D01*
X127728899Y-101596450D01*
X127826446Y-101413954D01*
X127886514Y-101215934D01*
X127906797Y-101010000D01*
X127886514Y-100804066D01*
X127826446Y-100606046D01*
X127813579Y-100581973D01*
X135166435Y-100581973D01*
X135166436Y-100581976D01*
X135201993Y-100721289D01*
X135275353Y-100844932D01*
X135275363Y-100844945D01*
X135380588Y-100942911D01*
X135380588Y-100942912D01*
X135433151Y-100971614D01*
X137075652Y-101651960D01*
X137075653Y-101651960D01*
X137929038Y-99591710D01*
X137275753Y-99321110D01*
X138582318Y-99321110D01*
X140642569Y-100174495D01*
X141322913Y-98532002D01*
X141339789Y-98474530D01*
X141344922Y-98330848D01*
X141344921Y-98330845D01*
X141309364Y-98191532D01*
X141236004Y-98067889D01*
X141235994Y-98067876D01*
X141130769Y-97969910D01*
X141130769Y-97969909D01*
X141078206Y-97941207D01*
X139435704Y-97260860D01*
X139435703Y-97260860D01*
X138582318Y-99321110D01*
X137275753Y-99321110D01*
X135868787Y-98738324D01*
X135868786Y-98738325D01*
X135188444Y-100380819D01*
X135171568Y-100438291D01*
X135166435Y-100581973D01*
X127813579Y-100581973D01*
X127728899Y-100423550D01*
X127626654Y-100298963D01*
X127597624Y-100263589D01*
X127479891Y-100166969D01*
X127437664Y-100132315D01*
X127255168Y-100034768D01*
X127057148Y-99974700D01*
X127057146Y-99974699D01*
X127057148Y-99974699D01*
X126851214Y-99954417D01*
X126645281Y-99974699D01*
X126447257Y-100034769D01*
X126337112Y-100093643D01*
X126264764Y-100132315D01*
X126264762Y-100132316D01*
X126264761Y-100132317D01*
X126104803Y-100263589D01*
X125973531Y-100423547D01*
X125973529Y-100423550D01*
X125934857Y-100495898D01*
X125875983Y-100606043D01*
X125815913Y-100804067D01*
X125795631Y-101010000D01*
X124054598Y-101010000D01*
X124055583Y-101000000D01*
X124035300Y-100794066D01*
X123975232Y-100596046D01*
X123877685Y-100413550D01*
X123825702Y-100350209D01*
X123746410Y-100253589D01*
X123602405Y-100135409D01*
X123586450Y-100122315D01*
X123403954Y-100024768D01*
X123205934Y-99964700D01*
X123205932Y-99964699D01*
X123205934Y-99964699D01*
X123000000Y-99944417D01*
X122794067Y-99964699D01*
X122596043Y-100024769D01*
X122485898Y-100083643D01*
X122413550Y-100122315D01*
X122413548Y-100122316D01*
X122413547Y-100122317D01*
X122253589Y-100253589D01*
X122149176Y-100380819D01*
X122122315Y-100413550D01*
X122116970Y-100423550D01*
X122024769Y-100596043D01*
X122024768Y-100596045D01*
X122024768Y-100596046D01*
X122021735Y-100606046D01*
X121964699Y-100794067D01*
X121944417Y-101000000D01*
X111914714Y-101000000D01*
X111914714Y-98460000D01*
X121944417Y-98460000D01*
X121964699Y-98665932D01*
X121973800Y-98695934D01*
X122024768Y-98863954D01*
X122122315Y-99046450D01*
X122146935Y-99076450D01*
X122253589Y-99206410D01*
X122290145Y-99236410D01*
X122413550Y-99337685D01*
X122596046Y-99435232D01*
X122794066Y-99495300D01*
X122794065Y-99495300D01*
X122812529Y-99497118D01*
X123000000Y-99515583D01*
X123205934Y-99495300D01*
X123403954Y-99435232D01*
X123586450Y-99337685D01*
X123746410Y-99206410D01*
X123877685Y-99046450D01*
X123975232Y-98863954D01*
X124035300Y-98665934D01*
X124054598Y-98470000D01*
X125795631Y-98470000D01*
X125815913Y-98675932D01*
X125834840Y-98738325D01*
X125875982Y-98873954D01*
X125973529Y-99056450D01*
X125989944Y-99076452D01*
X126104803Y-99216410D01*
X126201423Y-99295702D01*
X126264764Y-99347685D01*
X126447260Y-99445232D01*
X126645280Y-99505300D01*
X126645279Y-99505300D01*
X126663743Y-99507118D01*
X126851214Y-99525583D01*
X127057148Y-99505300D01*
X127255168Y-99445232D01*
X127437664Y-99347685D01*
X127597624Y-99216410D01*
X127728899Y-99056450D01*
X127826446Y-98873954D01*
X127886514Y-98675934D01*
X127906797Y-98470000D01*
X127886514Y-98264066D01*
X127826446Y-98066046D01*
X127728899Y-97883550D01*
X127676916Y-97820209D01*
X127597624Y-97723589D01*
X127479891Y-97626969D01*
X127437664Y-97592315D01*
X127308586Y-97523321D01*
X129229495Y-97523321D01*
X129229495Y-97523324D01*
X129245057Y-97601556D01*
X129289071Y-97667427D01*
X129289371Y-97667876D01*
X129338950Y-97701004D01*
X132313377Y-98933052D01*
X132342419Y-98938828D01*
X132371858Y-98944685D01*
X132371860Y-98944685D01*
X132450091Y-98929123D01*
X132516412Y-98884809D01*
X132549540Y-98835230D01*
X132781021Y-98276385D01*
X136060127Y-98276385D01*
X138120378Y-99129770D01*
X138973764Y-97069519D01*
X138973763Y-97069518D01*
X137331270Y-96389176D01*
X137273798Y-96372300D01*
X137130116Y-96367167D01*
X137130113Y-96367168D01*
X136990800Y-96402725D01*
X136867157Y-96476085D01*
X136867144Y-96476095D01*
X136769178Y-96581320D01*
X136769177Y-96581320D01*
X136740475Y-96633883D01*
X136060127Y-98276385D01*
X132781021Y-98276385D01*
X133671306Y-96127046D01*
X133715147Y-96072644D01*
X133781441Y-96050579D01*
X133785867Y-96050500D01*
X139574167Y-96050500D01*
X139641206Y-96070185D01*
X139661848Y-96086819D01*
X143812669Y-100237640D01*
X143846154Y-100298963D01*
X143841170Y-100368655D01*
X143839549Y-100372774D01*
X142729770Y-103052018D01*
X142729768Y-103052026D01*
X142718137Y-103110499D01*
X142718137Y-103110502D01*
X142733699Y-103188734D01*
X142777713Y-103254605D01*
X142778013Y-103255054D01*
X142827592Y-103288182D01*
X145802019Y-104520230D01*
X145831061Y-104526006D01*
X145860500Y-104531863D01*
X145860502Y-104531863D01*
X145938733Y-104516301D01*
X146005054Y-104471987D01*
X146038182Y-104422408D01*
X146781845Y-102627046D01*
X146825686Y-102572644D01*
X146891980Y-102550579D01*
X146896406Y-102550500D01*
X153251650Y-102550500D01*
X153251652Y-102550500D01*
X153328079Y-102530021D01*
X153396601Y-102490460D01*
X153452550Y-102434511D01*
X154578711Y-101308348D01*
X154640032Y-101274865D01*
X154709723Y-101279849D01*
X154713803Y-101281454D01*
X157018764Y-102236201D01*
X157047806Y-102241977D01*
X157077245Y-102247834D01*
X157077247Y-102247834D01*
X157155478Y-102232272D01*
X157221800Y-102187958D01*
X157254928Y-102138378D01*
X158785469Y-98443326D01*
X158797102Y-98384843D01*
X158781540Y-98306612D01*
X158766476Y-98284067D01*
X158737229Y-98240294D01*
X158737225Y-98240289D01*
X158687645Y-98207161D01*
X154992594Y-96676621D01*
X154992586Y-96676619D01*
X154934113Y-96664988D01*
X154934111Y-96664988D01*
X154855878Y-96680550D01*
X154789562Y-96724860D01*
X154789557Y-96724864D01*
X154756429Y-96774444D01*
X153225889Y-100469495D01*
X153225887Y-100469503D01*
X153214256Y-100527976D01*
X153214256Y-100527979D01*
X153229818Y-100606211D01*
X153274128Y-100672527D01*
X153274132Y-100672532D01*
X153323712Y-100705660D01*
X153864843Y-100929804D01*
X153919246Y-100973645D01*
X153941311Y-101039939D01*
X153924032Y-101107638D01*
X153905071Y-101132046D01*
X153123938Y-101913181D01*
X153062615Y-101946666D01*
X153036257Y-101949500D01*
X147248073Y-101949500D01*
X147181034Y-101929815D01*
X147135279Y-101877011D01*
X147125335Y-101807853D01*
X147133512Y-101778047D01*
X147134190Y-101776410D01*
X147270230Y-101447981D01*
X147281863Y-101389498D01*
X147266301Y-101311267D01*
X147221987Y-101244946D01*
X147221983Y-101244943D01*
X147221982Y-101244942D01*
X147172410Y-101211819D01*
X147172406Y-101211817D01*
X144573728Y-100135409D01*
X144533500Y-100108529D01*
X141948292Y-97523321D01*
X146979495Y-97523321D01*
X146979495Y-97523324D01*
X146995057Y-97601556D01*
X147039071Y-97667427D01*
X147039371Y-97667876D01*
X147088950Y-97701004D01*
X150063377Y-98933052D01*
X150092419Y-98938828D01*
X150121858Y-98944685D01*
X150121860Y-98944685D01*
X150200091Y-98929123D01*
X150266412Y-98884809D01*
X150299540Y-98835230D01*
X151421306Y-96127046D01*
X151465147Y-96072644D01*
X151531441Y-96050579D01*
X151535867Y-96050500D01*
X157324167Y-96050500D01*
X157391206Y-96070185D01*
X157411848Y-96086819D01*
X161562669Y-100237640D01*
X161596154Y-100298963D01*
X161591170Y-100368655D01*
X161589549Y-100372774D01*
X160479770Y-103052018D01*
X160479768Y-103052026D01*
X160468137Y-103110499D01*
X160468137Y-103110502D01*
X160483699Y-103188734D01*
X160527713Y-103254605D01*
X160528013Y-103255054D01*
X160577592Y-103288182D01*
X163552019Y-104520230D01*
X163581061Y-104526006D01*
X163610500Y-104531863D01*
X163610502Y-104531863D01*
X163688733Y-104516301D01*
X163755054Y-104471987D01*
X163788182Y-104422408D01*
X164531845Y-102627046D01*
X164575686Y-102572644D01*
X164641980Y-102550579D01*
X164646406Y-102550500D01*
X171001650Y-102550500D01*
X171001652Y-102550500D01*
X171078079Y-102530021D01*
X171146601Y-102490460D01*
X171202550Y-102434511D01*
X172328711Y-101308348D01*
X172390032Y-101274865D01*
X172459723Y-101279849D01*
X172463803Y-101281454D01*
X174768764Y-102236201D01*
X174797806Y-102241977D01*
X174827245Y-102247834D01*
X174827247Y-102247834D01*
X174905478Y-102232272D01*
X174971800Y-102187958D01*
X175004928Y-102138378D01*
X176535469Y-98443326D01*
X176547102Y-98384843D01*
X176531540Y-98306612D01*
X176516476Y-98284067D01*
X176487229Y-98240294D01*
X176487225Y-98240289D01*
X176437645Y-98207161D01*
X172742594Y-96676621D01*
X172742586Y-96676619D01*
X172684113Y-96664988D01*
X172684111Y-96664988D01*
X172605878Y-96680550D01*
X172539562Y-96724860D01*
X172539557Y-96724864D01*
X172506429Y-96774444D01*
X170975889Y-100469495D01*
X170975887Y-100469503D01*
X170964256Y-100527976D01*
X170964256Y-100527979D01*
X170979818Y-100606211D01*
X171024128Y-100672527D01*
X171024132Y-100672532D01*
X171073712Y-100705660D01*
X171614843Y-100929804D01*
X171669246Y-100973645D01*
X171691311Y-101039939D01*
X171674032Y-101107638D01*
X171655071Y-101132046D01*
X170873938Y-101913181D01*
X170812615Y-101946666D01*
X170786257Y-101949500D01*
X164998073Y-101949500D01*
X164931034Y-101929815D01*
X164885279Y-101877011D01*
X164875335Y-101807853D01*
X164883512Y-101778047D01*
X164884190Y-101776410D01*
X165020230Y-101447981D01*
X165031863Y-101389498D01*
X165016301Y-101311267D01*
X164971987Y-101244946D01*
X164971983Y-101244943D01*
X164971982Y-101244942D01*
X164922410Y-101211819D01*
X164922406Y-101211817D01*
X162323728Y-100135409D01*
X162283500Y-100108529D01*
X159698292Y-97523321D01*
X164729495Y-97523321D01*
X164729495Y-97523324D01*
X164745057Y-97601556D01*
X164789071Y-97667427D01*
X164789371Y-97667876D01*
X164838950Y-97701004D01*
X167813377Y-98933052D01*
X167842419Y-98938828D01*
X167871858Y-98944685D01*
X167871860Y-98944685D01*
X167950091Y-98929123D01*
X168016412Y-98884809D01*
X168049540Y-98835230D01*
X169171306Y-96127046D01*
X169215147Y-96072644D01*
X169281441Y-96050579D01*
X169285867Y-96050500D01*
X175074167Y-96050500D01*
X175141206Y-96070185D01*
X175161848Y-96086819D01*
X179312669Y-100237640D01*
X179346154Y-100298963D01*
X179341170Y-100368655D01*
X179339549Y-100372774D01*
X178229770Y-103052018D01*
X178229768Y-103052026D01*
X178218137Y-103110499D01*
X178218137Y-103110502D01*
X178233699Y-103188734D01*
X178277713Y-103254605D01*
X178278013Y-103255054D01*
X178327592Y-103288182D01*
X181302019Y-104520230D01*
X181331061Y-104526006D01*
X181360500Y-104531863D01*
X181360502Y-104531863D01*
X181438733Y-104516301D01*
X181505054Y-104471987D01*
X181538182Y-104422408D01*
X182770230Y-101447981D01*
X182781863Y-101389498D01*
X182766301Y-101311267D01*
X182721987Y-101244946D01*
X182721983Y-101244943D01*
X182721982Y-101244942D01*
X182672410Y-101211819D01*
X182672406Y-101211817D01*
X180073728Y-100135409D01*
X180033500Y-100108529D01*
X178414971Y-98490000D01*
X184108631Y-98490000D01*
X184128913Y-98695932D01*
X184141773Y-98738325D01*
X184188982Y-98893954D01*
X184286529Y-99076450D01*
X184286531Y-99076452D01*
X184417803Y-99236410D01*
X184514423Y-99315702D01*
X184577764Y-99367685D01*
X184760260Y-99465232D01*
X184958280Y-99525300D01*
X184958279Y-99525300D01*
X184976743Y-99527118D01*
X185164214Y-99545583D01*
X185370148Y-99525300D01*
X185568168Y-99465232D01*
X185750664Y-99367685D01*
X185910624Y-99236410D01*
X186041899Y-99076450D01*
X186139446Y-98893954D01*
X186199514Y-98695934D01*
X186219797Y-98490000D01*
X186199514Y-98284066D01*
X186139446Y-98086046D01*
X186041899Y-97903550D01*
X185989916Y-97840209D01*
X185910624Y-97743589D01*
X185750666Y-97612317D01*
X185750667Y-97612317D01*
X185750664Y-97612315D01*
X185568168Y-97514768D01*
X185370148Y-97454700D01*
X185370146Y-97454699D01*
X185370148Y-97454699D01*
X185164214Y-97434417D01*
X184958281Y-97454699D01*
X184760257Y-97514769D01*
X184650112Y-97573643D01*
X184577764Y-97612315D01*
X184577762Y-97612316D01*
X184577761Y-97612317D01*
X184417803Y-97743589D01*
X184286531Y-97903547D01*
X184188983Y-98086043D01*
X184128913Y-98284067D01*
X184108631Y-98490000D01*
X178414971Y-98490000D01*
X176187152Y-96262181D01*
X176153667Y-96200858D01*
X176158651Y-96131166D01*
X176200523Y-96075233D01*
X176265987Y-96050816D01*
X176274833Y-96050500D01*
X183989714Y-96050500D01*
X184056753Y-96070185D01*
X184102508Y-96122989D01*
X184113714Y-96174500D01*
X184113714Y-96819752D01*
X184125345Y-96878229D01*
X184125346Y-96878230D01*
X184169661Y-96944552D01*
X184235983Y-96988867D01*
X184235984Y-96988868D01*
X184294461Y-97000499D01*
X184294464Y-97000500D01*
X184294466Y-97000500D01*
X186033964Y-97000500D01*
X186033965Y-97000499D01*
X186048782Y-96997552D01*
X186092443Y-96988868D01*
X186092443Y-96988867D01*
X186092445Y-96988867D01*
X186158766Y-96944552D01*
X186203081Y-96878231D01*
X186203081Y-96878229D01*
X186203082Y-96878229D01*
X186214713Y-96819752D01*
X186214714Y-96819750D01*
X186214714Y-95080249D01*
X186214713Y-95080247D01*
X186203082Y-95021770D01*
X186203081Y-95021769D01*
X186158766Y-94955447D01*
X186092444Y-94911132D01*
X186092443Y-94911131D01*
X186033966Y-94899500D01*
X186033962Y-94899500D01*
X184294466Y-94899500D01*
X184294461Y-94899500D01*
X184235984Y-94911131D01*
X184235983Y-94911132D01*
X184169661Y-94955447D01*
X184125346Y-95021769D01*
X184125345Y-95021770D01*
X184113714Y-95080247D01*
X184113714Y-95325500D01*
X184094029Y-95392539D01*
X184041225Y-95438294D01*
X183989714Y-95449500D01*
X168785606Y-95449500D01*
X168738153Y-95440061D01*
X168481005Y-95333547D01*
X166209339Y-94392592D01*
X166209331Y-94392590D01*
X166150858Y-94380959D01*
X166150856Y-94380959D01*
X166072623Y-94396521D01*
X166006306Y-94440833D01*
X166006300Y-94440839D01*
X165973177Y-94490411D01*
X165973175Y-94490415D01*
X164741128Y-97464840D01*
X164741126Y-97464848D01*
X164729495Y-97523321D01*
X159698292Y-97523321D01*
X157684512Y-95509541D01*
X157684504Y-95509535D01*
X157615995Y-95469982D01*
X157615990Y-95469979D01*
X157590513Y-95463152D01*
X157539562Y-95449500D01*
X157539560Y-95449500D01*
X151035606Y-95449500D01*
X150988153Y-95440061D01*
X150731005Y-95333547D01*
X148459339Y-94392592D01*
X148459331Y-94392590D01*
X148400858Y-94380959D01*
X148400856Y-94380959D01*
X148322623Y-94396521D01*
X148256306Y-94440833D01*
X148256300Y-94440839D01*
X148223177Y-94490411D01*
X148223175Y-94490415D01*
X146991128Y-97464840D01*
X146991126Y-97464848D01*
X146979495Y-97523321D01*
X141948292Y-97523321D01*
X139934512Y-95509541D01*
X139934504Y-95509535D01*
X139865995Y-95469982D01*
X139865990Y-95469979D01*
X139840513Y-95463152D01*
X139789562Y-95449500D01*
X139789560Y-95449500D01*
X133285606Y-95449500D01*
X133238153Y-95440061D01*
X132981005Y-95333547D01*
X130709339Y-94392592D01*
X130709331Y-94392590D01*
X130650858Y-94380959D01*
X130650856Y-94380959D01*
X130572623Y-94396521D01*
X130506306Y-94440833D01*
X130506300Y-94440839D01*
X130473177Y-94490411D01*
X130473175Y-94490415D01*
X129241128Y-97464840D01*
X129241126Y-97464848D01*
X129229495Y-97523321D01*
X127308586Y-97523321D01*
X127255168Y-97494768D01*
X127057148Y-97434700D01*
X127057146Y-97434699D01*
X127057148Y-97434699D01*
X126851214Y-97414417D01*
X126645281Y-97434699D01*
X126447257Y-97494769D01*
X126337112Y-97553643D01*
X126264764Y-97592315D01*
X126264762Y-97592316D01*
X126264761Y-97592317D01*
X126104803Y-97723589D01*
X125973531Y-97883547D01*
X125973529Y-97883550D01*
X125934857Y-97955898D01*
X125875983Y-98066043D01*
X125815913Y-98264067D01*
X125795631Y-98470000D01*
X124054598Y-98470000D01*
X124055583Y-98460000D01*
X124035300Y-98254066D01*
X123975232Y-98056046D01*
X123877685Y-97873550D01*
X123825702Y-97810209D01*
X123746410Y-97713589D01*
X123609894Y-97601555D01*
X123586450Y-97582315D01*
X123403954Y-97484768D01*
X123205934Y-97424700D01*
X123205932Y-97424699D01*
X123205934Y-97424699D01*
X123000000Y-97404417D01*
X122794067Y-97424699D01*
X122596043Y-97484769D01*
X122523919Y-97523321D01*
X122413550Y-97582315D01*
X122413548Y-97582316D01*
X122413547Y-97582317D01*
X122253589Y-97713589D01*
X122122317Y-97873547D01*
X122122315Y-97873550D01*
X122116970Y-97883550D01*
X122024769Y-98056043D01*
X122024768Y-98056045D01*
X122024768Y-98056046D01*
X122021735Y-98066046D01*
X121964699Y-98254067D01*
X121944417Y-98460000D01*
X111914714Y-98460000D01*
X111914714Y-95920000D01*
X121944417Y-95920000D01*
X121964699Y-96125932D01*
X121967733Y-96135934D01*
X122024768Y-96323954D01*
X122122315Y-96506450D01*
X122156969Y-96548677D01*
X122253589Y-96666410D01*
X122324812Y-96724860D01*
X122413550Y-96797685D01*
X122596046Y-96895232D01*
X122794066Y-96955300D01*
X122794065Y-96955300D01*
X122812529Y-96957118D01*
X123000000Y-96975583D01*
X123205934Y-96955300D01*
X123403954Y-96895232D01*
X123586450Y-96797685D01*
X123746410Y-96666410D01*
X123877685Y-96506450D01*
X123975232Y-96323954D01*
X124035300Y-96125934D01*
X124054598Y-95930000D01*
X125795631Y-95930000D01*
X125815913Y-96135932D01*
X125835608Y-96200858D01*
X125875982Y-96333954D01*
X125973529Y-96516450D01*
X125973531Y-96516452D01*
X126104803Y-96676410D01*
X126201423Y-96755702D01*
X126264764Y-96807685D01*
X126447260Y-96905232D01*
X126645280Y-96965300D01*
X126645279Y-96965300D01*
X126663743Y-96967118D01*
X126851214Y-96985583D01*
X127057148Y-96965300D01*
X127255168Y-96905232D01*
X127437664Y-96807685D01*
X127597624Y-96676410D01*
X127728899Y-96516450D01*
X127826446Y-96333954D01*
X127886514Y-96135934D01*
X127906797Y-95930000D01*
X127886514Y-95724066D01*
X127826446Y-95526046D01*
X127728899Y-95343550D01*
X127676916Y-95280209D01*
X127597624Y-95183589D01*
X127479891Y-95086969D01*
X127437664Y-95052315D01*
X127255168Y-94954768D01*
X127057148Y-94894700D01*
X127057146Y-94894699D01*
X127057148Y-94894699D01*
X126851214Y-94874417D01*
X126645281Y-94894699D01*
X126447257Y-94954769D01*
X126337112Y-95013643D01*
X126264764Y-95052315D01*
X126264762Y-95052316D01*
X126264761Y-95052317D01*
X126104803Y-95183589D01*
X125973531Y-95343547D01*
X125875983Y-95526043D01*
X125815913Y-95724067D01*
X125795631Y-95930000D01*
X124054598Y-95930000D01*
X124055583Y-95920000D01*
X124035300Y-95714066D01*
X123975232Y-95516046D01*
X123877685Y-95333550D01*
X123754617Y-95183590D01*
X123746410Y-95173589D01*
X123628677Y-95076969D01*
X123586450Y-95042315D01*
X123403954Y-94944768D01*
X123205934Y-94884700D01*
X123205932Y-94884699D01*
X123205934Y-94884699D01*
X123000000Y-94864417D01*
X122794067Y-94884699D01*
X122596043Y-94944769D01*
X122485898Y-95003643D01*
X122413550Y-95042315D01*
X122413548Y-95042316D01*
X122413547Y-95042317D01*
X122253589Y-95173589D01*
X122128921Y-95325500D01*
X122122315Y-95333550D01*
X122083643Y-95405898D01*
X122024769Y-95516043D01*
X122024768Y-95516045D01*
X122024768Y-95516046D01*
X122021735Y-95526046D01*
X121964699Y-95714067D01*
X121944417Y-95920000D01*
X111914714Y-95920000D01*
X111914714Y-92255413D01*
X111915186Y-92244606D01*
X111928953Y-92087248D01*
X111932704Y-92065970D01*
X111972184Y-91918627D01*
X111979576Y-91898321D01*
X111997966Y-91858885D01*
X112044038Y-91760082D01*
X112054845Y-91741365D01*
X112142327Y-91616430D01*
X112156220Y-91599873D01*
X112264078Y-91492015D01*
X112280629Y-91478126D01*
X112405583Y-91390633D01*
X112424278Y-91379839D01*
X112562537Y-91315369D01*
X112582838Y-91307981D01*
X112730176Y-91268503D01*
X112751453Y-91264751D01*
X112872321Y-91254178D01*
X112908975Y-91250972D01*
X112919781Y-91250500D01*
X112980101Y-91250501D01*
X112980105Y-91250500D01*
X185184108Y-91250500D01*
X185245572Y-91250500D01*
X185254418Y-91250816D01*
G37*
G04 #@! TD.AperFunction*
G04 #@! TD*
M02*
